<svg id="Layer_1" data-name="Layer 1" xmlns="http://www.w3.org/2000/svg" width="1501.50428" height="497.37707" viewBox="0 0 1501.50428 497.37707">
  <defs>
    <style>
      .cls-1 {
        fill: #2c60e3;
      }

      .cls-2 {
        fill: #5680e9;
      }

      .cls-3 {
        fill: #f0f4fd;
      }

      .cls-4 {
        fill: #3960c2;
      }

      .cls-5 {
        fill: #d2def9;
      }

      .cls-6 {
        fill: #507ce7;
      }

      .cls-7 {
        fill: #c6d4f7;
      }

      .cls-8 {
        fill: #fdfefe;
      }
    </style>
  </defs>
  <title>Todo logo</title>
  <g>
    <path class="cls-1" d="M697.36166,624.63352q-.01247.64119-.02623,1.28379-2.3935,10.41466-4.78447,20.82648l-.00183.01217c-.77159.6485-1.85281,1.14208-2.26722,1.96963-4.57005,9.12571-8.46851,18.64212-13.67952,27.37822-6.04451,10.13344-12.20861,20.35255-21.92759,27.7561-2.22882,1.69781-3.49211,4.66318-5.19974,7.04524l-.11034.10273q-.50735.47909-1.01555.95807l-.1426.13258c-3.16971,1.76958-6.39571,3.44664-9.49809,5.32754-6.99085,4.23834-13.88818,8.63109-20.88574,12.85806-5.16175,3.118-10.42174,6.07332-15.638,9.10116l-.01289.00375c-8.09654,1.70188-16.19642,3.38942-24.27751,5.16215-.30548.067-.42985.95934-.63864,1.467q-1.52824.14816-3.0573.29571-6.39753.89664-12.79338,1.79427c-2.24822.118-4.49645.33866-6.74472.33914-68.33328.01486-136.675.66-204.99683-.22335-45.97134-.59441-84.07117-19.87683-113.366-55.23391a137.63785,137.63785,0,0,1-30.48168-69.13031,180.16289,180.16289,0,0,1-1.93165-25.20348c-.154-66.8302-.51725-133.66465.05216-200.49039.43183-50.67946,22.49775-90.809,63.441-120.1919a134.22634,134.22634,0,0,1,49.956-22.16989q1.63984-.1545,3.27877-.30931,2.05791-.31344,4.11285-.62766,4.716-.78289,9.43782-1.56426,1.32984-.08684,2.65962-.17414l.48559.18857.42-.31224q2.03274-.34175,4.06725-.68365,70.01781.07431,140.03211.138c26.72546.00608,53.451-.09723,80.17643-.15128,36.02021,1.906,66.51224,16.25845,91.62012,39.47265-4.1323,5.02178-7.58743,9.91937-11.74056,14.12813-9.87817,10.01056-20.25006,19.53375-30.13219,29.54054q-53.47608,54.15063-106.75477,108.49623c-3.81687,3.882-7.59681,7.80032-11.39372,11.70176q-.54819.61547-1.09676,1.231l.00541-.00578q-.57337.57112-1.14695,1.14231-.55409.54822-1.10811,1.09635l-1.1668,1.14885q-1.1136,1.13007-2.227,2.26l-3.39621,3.38512.001-.00055q-1.05672,1.16686-2.11365,2.3337-3.96207,4.08423-7.92415,8.16843-3.37541,3.27722-6.75083,6.55449l-.04078.0413q-2.48543,2.53454-4.97088,5.0691l-.08845.08722c-9.2862,10.02833-18.57243,20.05663-28.66766,30.95857-3.27323-3.85218-4.8512-5.96935-6.68857-7.83049-14.92511-15.1184-29.79112-30.29771-44.88942-45.24193a44.35129,44.35129,0,0,0-51.48587-8.135c-26.73157,11.946-34.19786,49.11887-13.80017,70.26619,19.02413,19.72329,38.383,39.12732,57.78161,58.48434,11.54145,11.51669,23.44413,22.67131,35.18443,33.98869,1.08408,1.67206,1.91929,3.59025,3.29117,4.97774,12.15671,12.29519,24.78587,24.1461,36.53991,36.811,15.89045,17.12181,46.02954,19.36046,64.12593,1.58891,19.26678-18.92086,38.252-38.12937,57.27375-57.298,2.964-2.98692,5.46816-6.43025,8.185-9.66255,11.938-11.58639,24.0248-23.02407,35.784-34.78921q40.90258-40.9231,81.56751-82.08386a36.26141,36.26141,0,0,1,3.4029-2.61381c0,2.8669.00007,4.9111,0,6.95529q-.00161,56.74781.01244,113.49559c.00138,2.437.22782,4.87391.34957,7.31089q-.10371,4.81989-.20758,9.63983-.06841,1.09442-.13664,2.1888-.21071.60106-.421,1.202Q698.071,621.5025,697.36166,624.63352Z" transform="translate(-203.62756 -251.31146)"/>
    <path class="cls-2" d="M699.54494,605.34135c-.12175-2.437-.34819-4.87385-.34957-7.31089q-.032-56.74782-.01244-113.49559c.00007-2.04419,0-4.08839,0-6.95529a36.26141,36.26141,0,0,0-3.4029,2.61381q-40.78821,41.03752-81.56751,82.08386c-11.75921,11.76514-23.846,23.20282-35.78418,34.78845-.53027-3.34436-.28084-7.10864-1.79784-9.9196-1.70034-3.15077-5.03034-5.409-7.59546-8.10866-5.10294-5.37056-9.37124-12.0403-15.43871-15.86721-8.65183-5.45681-11.41509-15.04383-18.16568-21.59767q.08072-.5.16646-.99915c7.26427-7.027,14.64292-13.94009,21.77282-21.10089,29.65856-29.787,59.12874-59.76246,88.89734-89.43874,16.89635-16.84394,34.23647-33.24268,51.73358-50.18756a11.35947,11.35947,0,0,1,1.56136,3.9323c.39694,4.86528.49377,9.7647.49894,14.65089q.10656,100.41886.12278,200.83782A56.19765,56.19765,0,0,1,699.54494,605.34135Z" transform="translate(-203.62756 -251.31146)"/>
    <path class="cls-3" d="M535.59711,540.57341q-.08573.49914-.16622.999Q529.663,547.23,523.89464,552.88783c-1.81117-.26182-4.195.1199-5.33576-.89532q-8.02551-7.14235-15.43488-14.96758c-3.09377-3.26635-5.30991-7.39411-8.5277-10.507-8.031-7.769-16.535-15.04794-24.59771-22.7856-4.38719-4.21039-8.85407-8.63778-8.42019-15.5734l.09025-.08484q2.48629-2.53337,4.96912-5.07144l.04075-.0413q2.75838-1.17326,5.5168-2.34643l1.14464-.09432-.00165-2.11545c4.71724,4.57,9.49285,9.0817,14.13846,13.72344,7.48134,7.47509,14.9958,14.92346,22.26548,22.60162,4.58636,4.84406,8.70329,10.12955,13.12247,15.13611C526.56669,534.06038,529.26373,539.49359,535.59711,540.57341Z" transform="translate(-203.62756 -251.31146)"/>
    <path class="cls-4" d="M562.00376,252.30817c-26.72547.05405-53.451.15736-80.17643.15128q-70.01516-.01593-140.03211-.138a43.424,43.424,0,0,1,6.50382-.97q103.60029-.07872,207.20057-.0026A43.89152,43.89152,0,0,1,562.00376,252.30817Z" transform="translate(-203.62756 -251.31146)"/>
    <path class="cls-2" d="M649.47506,710.90515c1.70763-2.38206,2.97092-5.34743,5.19974-7.04524,9.719-7.40355,15.88308-17.62266,21.92759-27.7561,5.211-8.7361,9.10947-18.25251,13.67952-27.37822.41441-.82755,1.49563-1.32113,2.26722-1.96963-3.52768,8.59741-5.91707,17.92323-10.84559,25.62384-7.70636,12.04095-17.03844,23.05517-25.91919,34.31714C654.296,708.58446,651.60851,709.52635,649.47506,710.90515Z" transform="translate(-203.62756 -251.31146)"/>
    <path class="cls-2" d="M602.18478,739.38525c5.21622-3.0278,10.47621-5.98314,15.638-9.10112,6.99756-4.227,13.89489-8.61972,20.88574-12.85806,3.10238-1.8809,6.32838-3.558,9.49812-5.32754-3.35888,3.08347-6.27561,6.97478-10.15886,9.09926C626.29452,727.62794,614.16664,733.37315,602.18478,739.38525Z" transform="translate(-203.62756 -251.31146)"/>
    <path class="cls-2" d="M577.25574,746.0182c.20879-.50767.33316-1.4.63864-1.467,8.08109-1.77273,16.181-3.46027,24.27751-5.16215Q589.7137,742.70385,577.25574,746.0182Z" transform="translate(-203.62756 -251.31146)"/>
    <path class="cls-2" d="M692.551,646.74379q2.39158-10.41252,4.78447-20.82648Q694.94446,636.32913,692.551,646.74379Z" transform="translate(-203.62756 -251.31146)"/>
    <path class="cls-5" d="M473.33831,478.4052q.00083,1.05774.00179,2.117-.57223.04794-1.14478.09279-2.75844,1.17317-5.5168,2.34639,3.37545-3.27723,6.75086-6.55447Q473.38383,477.40608,473.33831,478.4052Z" transform="translate(-203.62756 -251.31146)"/>
    <path class="cls-2" d="M561.40506,748.10818q6.39624-.89736,12.79338-1.79427Q567.80256,747.21159,561.40506,748.10818Z" transform="translate(-203.62756 -251.31146)"/>
    <path class="cls-4" d="M334.1628,253.30286q-4.72038.78174-9.43782,1.56426Q329.44686,254.08576,334.1628,253.30286Z" transform="translate(-203.62756 -251.31146)"/>
    <path class="cls-2" d="M697.36162,624.63352q.70926-3.13093,1.41807-6.26158Q698.07022,621.50292,697.36162,624.63352Z" transform="translate(-203.62756 -251.31146)"/>
    <path class="cls-5" d="M483.46622,465.90533l3.39621-3.38511Q485.16413,464.21294,483.46622,465.90533Z" transform="translate(-203.62756 -251.31146)"/>
    <path class="cls-4" d="M320.61213,255.49478q-1.63917.15474-3.27877.30931Q318.97229,255.64929,320.61213,255.49478Z" transform="translate(-203.62756 -251.31146)"/>
    <path class="cls-5" d="M481.35353,468.23848q1.05687-1.16685,2.11365-2.3337Q482.41021,467.07161,481.35353,468.23848Z" transform="translate(-203.62756 -251.31146)"/>
    <path class="cls-2" d="M699.20072,617.17q.0683-1.09437.13667-2.1888Q699.2692,616.07555,699.20072,617.17Z" transform="translate(-203.62756 -251.31146)"/>
    <path class="cls-4" d="M337.728,253.00505l-.42.31224-.48559-.18857A.54865.54865,0,0,1,337.728,253.00505Z" transform="translate(-203.62756 -251.31146)"/>
    <path class="cls-5" d="M492.50588,456.8785q.54849-.61552,1.09676-1.231Q493.05409,456.263,492.50588,456.8785Z" transform="translate(-203.62756 -251.31146)"/>
    <path class="cls-5" d="M491.36434,458.015q.57352-.57119,1.14695-1.14231Q491.93771,457.44394,491.36434,458.015Z" transform="translate(-203.62756 -251.31146)"/>
    <path class="cls-5" d="M489.08943,460.26023l1.1668-1.14887Q489.67267,459.68591,489.08943,460.26023Z" transform="translate(-203.62756 -251.31146)"/>
    <path class="cls-2" d="M648.34917,711.966q.508-.479,1.01559-.95807Q648.85653,711.48686,648.34917,711.966Z" transform="translate(-203.62756 -251.31146)"/>
    <path class="cls-5" d="M461.57844,488.159c-.43392,6.93558,4.033,11.363,8.42015,15.57336,8.06268,7.73766,16.5667,15.01663,24.59771,22.7856,3.21779,3.11284,5.43393,7.2406,8.5277,10.507q7.39024,7.80241,15.43488,14.96758c1.14075,1.01522,3.52459.6335,5.33617.89532-1.58008,1.813-3.05333,3.73408-4.75761,5.422q-24.11323,23.88153-48.29376,47.695c-3.82314-.06646-7.35317,4.32722-11.57038-.7868-6.82877-8.28095-14.80172-15.60708-22.06706-23.542-9.8771-10.78732-19.49146-21.81495-29.337-32.63161-2.32989-2.55966-5.40248-4.45466-7.66589-7.06137-6.71867-7.73777-12.88917-15.97184-19.86975-23.4562-6.92724-7.42713-14.58228-14.175-21.90985-21.22936-3.05108-2.93731-6.25625-5.739-9.082-8.8806-5.197-5.7781-9.57153-12.45866-15.41632-17.44008-4.67476-3.98416-5.94059-7.69393-4.0786-13.06689a44.35172,44.35172,0,0,1,51.48594,8.1352c15.0983,14.94422,29.96431,30.12353,44.88942,45.24193,1.83737,1.86114,3.41534,3.97831,6.68857,7.83049C443.006,508.21565,452.29224,498.18735,461.57844,488.159Z" transform="translate(-203.62756 -251.31146)"/>
    <path class="cls-6" d="M470.84368,606.00484q24.15518-23.83912,48.29376-47.695c1.70428-1.68792,3.17753-3.60905,4.75761-5.422q5.76761-5.65773,11.53584-11.31544c6.75035,6.554,9.51361,16.141,18.16544,21.59784,6.06747,3.82691,10.33577,10.49665,15.43871,15.86721,2.56512,2.69962,5.89512,4.95789,7.59546,8.10866,1.517,2.811,1.26757,6.57524,1.7978,9.9196-2.71659,3.23306-5.22073,6.67639-8.18475,9.66331-19.02179,19.16862-38.007,38.37713-57.27375,57.298-18.09639,17.77155-48.23548,15.5329-64.12593-1.58891-11.754-12.66487-24.3832-24.51578-36.53991-36.811-1.37188-1.38749-2.20709-3.30568-3.29131-4.9775a15.1687,15.1687,0,0,1,2.63307.8685C431.53773,632.3333,457.74548,624.79944,470.84368,606.00484Z" transform="translate(-203.62756 -251.31146)"/>
    <path class="cls-7" d="M470.84368,606.00484c-13.0982,18.7946-39.30595,26.32846-59.198,15.51328a15.1687,15.1687,0,0,0-2.63307-.8685c-11.74016-11.31762-23.64284-22.47224-35.18429-33.98893-19.39863-19.357-38.75748-38.76105-57.78161-58.48434-20.39769-21.14732-12.9314-58.32014,13.80017-70.26619-1.86206,5.37277-.59623,9.08254,4.07853,13.0667,5.84479,4.98142,10.21929,11.662,15.41632,17.44008,2.82571,3.14163,6.03088,5.94329,9.082,8.8806,7.32757,7.05438,14.98261,13.80223,21.90985,21.22936,6.98058,7.48436,13.15108,15.71843,19.86975,23.4562,2.26341,2.60671,5.336,4.50171,7.66589,7.06137,9.84556,10.81666,19.45992,21.84429,29.337,32.63161,7.26534,7.93488,15.23829,15.261,22.06706,23.542C463.49051,610.33206,467.02054,605.93838,470.84368,606.00484Z" transform="translate(-203.62756 -251.31146)"/>
    <path class="cls-5" d="M466.63777,483.0027q-2.48365,2.53689-4.96912,5.07144Q464.15144,485.53607,466.63777,483.0027Z" transform="translate(-203.62756 -251.31146)"/>
    <path class="cls-8" d="M472.19532,480.615q.57245-.04561,1.14478-.09279Q472.76755,480.567,472.19532,480.615Z" transform="translate(-203.62756 -251.31146)"/>
  </g>
  <g>
    <path d="M824.6626,599.5166H793.62646V475.82227H746.84717V447.48535H871.44141v28.33692H824.6626Z" transform="translate(-203.62756 -251.31146)"/>
    <path d="M973.0957,542.168c0,38.17871-16.85644,60.72266-55.10058,60.72266q-55.32569,0-55.3252-60.72266c0-38.66895,16.666-61.17285,55.3252-61.17285C956.45508,480.99512,973.0957,503.62305,973.0957,542.168Zm-29.2373,0c0-22.3457-5.14063-36.43457-25.86328-36.43457-20.53711,0-26.08887,14.47168-26.08887,36.43457,0,22.00683,5.5332,35.9834,26.08887,35.9834C938.42969,578.15137,943.8584,564.21875,943.8584,542.168Z" transform="translate(-203.62756 -251.31146)"/>
    <path d="M1072.499,492.915v-56.8999h28.33692V599.5166h-26.08789V588.27148c-9.48731,8.13282-20.13379,14.61915-36.65918,14.61915-32.06348,0-44.75489-26.00782-44.75489-60.04883,0-35.27051,14.91211-61.84668,48.35352-61.84668C1053.5918,480.99512,1065.98828,486.92529,1072.499,492.915Zm0,73.7666V516.30371c-5.374-4.83594-14.877-10.34473-24.73925-10.34473-17.58789,0-25.18848,17.29688-25.18848,36.4336,0,19.207,5.33594,35.53418,23.165,35.53418C1056.2002,577.92676,1066.665,572.00781,1072.499,566.68164Z" transform="translate(-203.62756 -251.31146)"/>
    <path d="M1237.34863,542.168c0,38.17871-16.85547,60.72266-55.10058,60.72266q-55.32423,0-55.3252-60.72266c0-38.66895,16.667-61.17285,55.3252-61.17285C1220.709,480.99512,1237.34863,503.62305,1237.34863,542.168Zm-29.23633,0c0-22.3457-5.14062-36.43457-25.86425-36.43457-20.53614,0-26.08789,14.47168-26.08789,36.43457,0,22.00683,5.5332,35.9834,26.08789,35.9834C1202.68262,578.15137,1208.1123,564.21875,1208.1123,542.168Z" transform="translate(-203.62756 -251.31146)"/>
    <path d="M1354.74219,447.48535H1394.999L1445.377,599.5166H1413.666l-10.12012-30.81055h-58.47363l-9.89551,30.81055h-30.81153Zm40.03222,94.00781-20.46582-62.74707-20.46582,62.74707Z" transform="translate(-203.62756 -251.31146)"/>
    <path d="M1571.543,541.043c0,24.37207-7.59375,44.41308-21.70313,54.42578q-10.45752,7.4209-24.85058,7.42188-19.11768,0-32.61133-11.91993v51.95215H1464.041V484.36865h26.08886v11.24512c9.48731-8.13232,20.13282-14.61865,36.65821-14.61865C1559.1543,480.99512,1571.543,506.43066,1571.543,541.043Zm-29.23731.45019c0-19.12011-5.65332-35.53418-23.16406-35.53418-10.46387,0-20.92969,5.918-26.76367,11.24512v50.37695c5.374,4.83594,14.87695,10.34571,24.73926,10.34571C1534.71,577.92676,1542.30566,560.39063,1542.30566,541.49316Z" transform="translate(-203.62756 -251.31146)"/>
    <path d="M1705.13184,541.043c0,24.37207-7.59375,44.41308-21.70313,54.42578q-10.45752,7.4209-24.85058,7.42188-19.11768,0-32.61133-11.91993v51.95215h-28.33692V484.36865h26.08887v11.24512c9.4873-8.13232,20.13281-14.61865,36.6582-14.61865C1692.74316,480.99512,1705.13184,506.43066,1705.13184,541.043Zm-29.23731.45019c0-19.12011-5.65332-35.53418-23.16406-35.53418-10.46387,0-20.92969,5.918-26.76367,11.24512v50.37695c5.374,4.83594,14.877,10.34571,24.73925,10.34571C1668.29883,577.92676,1675.89453,560.39063,1675.89453,541.49316Z" transform="translate(-203.62756 -251.31146)"/>
  </g>
</svg>
